<svg xmlns="http://www.w3.org/2000/svg" viewBox="0 0 355.64 120.96">
  <defs/>
  <g id="Layer_2" data-name="Layer 2">
    <g id="Layer_1-2" data-name="Layer 1">
      <g class="cls-1">
        <g class="cls-1">
          <path class="cls-2" d="M108.47 58.13a1.7 1.7 0 0 0-1.92-1.92h-9a1.75 1.75 0 0 1-1.92-1.92v-7.17a1.73 1.73 0 0 1 1.92-1.92h32.77a1.7 1.7 0 0 1 1.92 1.92v7.17a1.72 1.72 0 0 1-1.92 1.92h-9a1.72 1.72 0 0 0-1.92 1.92v29.95a1.72 1.72 0 0 1-1.84 1.92h-7.17a1.75 1.75 0 0 1-1.92-1.92zM144.82 45.2a1.7 1.7 0 0 1 1.92 1.92v25.09c0 4.93.32 7.93 5.06 7.93s5-3 5-7.93V47.12a1.73 1.73 0 0 1 1.92-1.92h7.17a1.7 1.7 0 0 1 1.92 1.92V75.6c0 4.23-.89 15.55-16.06 15.55s-16.01-11.32-16.01-15.55V47.12a1.72 1.72 0 0 1 1.92-1.92zM173.24 59.6c0-4.22.9-15.55 16.06-15.55 13.44 0 15.68 8.83 16 13.82a1.88 1.88 0 0 1-1.66 2.13l-7.23 1.6c-1.28.25-2-.32-2.12-1.67-.25-3.07-1.34-4.86-5-4.86-4.73 0-5.05 3-5.05 7.93v9.22c0 4.93.32 7.93 5.05 7.93s5.06-3 5.06-6.14h-3.71a1.75 1.75 0 0 1-1.92-1.92V67a1.72 1.72 0 0 1 1.93-2h12.8a1.7 1.7 0 0 1 1.92 2v8.6c0 4.23-.9 15.55-16.07 15.55s-16.06-11.32-16.06-15.55zM226.36 45.2c12 0 16.64 4.87 16.64 15.36 0 2.18-.64 6.4-3.27 9.28 2.63 1.22 4.55 4.42 4.55 8.38 0 7.94-3.52 11.78-15.55 11.78h-15.81a1.75 1.75 0 0 1-1.92-1.92V47.19a1.78 1.78 0 0 1 1.92-2zm1.53 35.71c3.08 0 4.61-.32 4.61-3.32s-1.41-3.46-4.48-3.46h-4.16a1.73 1.73 0 0 0-1.92 1.92V79a1.73 1.73 0 0 0 1.92 1.92zm-.51-16c3.07 0 4.61-.38 4.61-4.35s-1.54-4.35-4.61-4.35h-3.45a1.72 1.72 0 0 0-1.93 1.92V63a1.72 1.72 0 0 0 1.92 1.92zM280 75.6c0 4.23-.9 15.55-16.06 15.55s-16.08-11.32-16.08-15.55v-16c0-4.22.9-15.55 16.07-15.55S280 55.38 280 59.6zM269 63c0-4.92-.32-7.93-5.05-7.93s-5.06 3-5.06 7.93v9.22c0 4.93.32 7.93 5.06 7.93s5.05-3 5.05-7.93zM316.79 87.82c0 1.41-.64 2.18-1.92 2.18h-7.17a1.72 1.72 0 0 1-1.92-1.92v-5.57a1.7 1.7 0 0 0-1.92-1.92h-5.5a1.72 1.72 0 0 0-1.92 1.92v5.57a1.7 1.7 0 0 1-1.92 1.92h-7.17c-1.22 0-1.92-.77-1.92-2.18V60.69c0-8.06 1.28-16.64 15.68-16.64s15.68 8.58 15.68 16.64zm-11-27.13c0-3.07-.45-4.61-4.67-4.61s-4.67 1.54-4.67 4.61v7a1.75 1.75 0 0 0 1.92 1.92h5.5a1.78 1.78 0 0 0 1.92-2zM331.83 58.13a1.7 1.7 0 0 0-1.92-1.92h-9a1.75 1.75 0 0 1-1.91-1.92v-7.17a1.72 1.72 0 0 1 2-1.92h32.77a1.7 1.7 0 0 1 1.92 1.92v7.17a1.72 1.72 0 0 1-1.92 1.92h-9a1.72 1.72 0 0 0-1.92 1.92v29.95a1.72 1.72 0 0 1-1.93 1.92h-7.17a1.75 1.75 0 0 1-1.92-1.92z" fill="#ffffff" />
        </g>
      </g>
      <path class="cls-2" d="M84.49 80.28a3.63 3.63 0 0 0-4-3.08l-48 5h-.23l3.49-21.4h26.62l-2 12.57 7.1-.74 2.36-14.73a3.45 3.45 0 0 0-2.86-4 3.29 3.29 0 0 0-.54 0H36.87l1.94-12h1.09a2.41 2.41 0 0 0 0-4.81H25.22a2.41 2.41 0 1 0 0 4.81h.51L19 83.71 3.24 85.44A3.66 3.66 0 0 0 0 89.16c0 1.15.48 11.46 7.06 20a2.21 2.21 0 0 0 1.76.87 2.28 2.28 0 0 0 .45 0c18.56-3.85 29.47-2.6 40-1.4 8.59 1 16.7 1.9 28.29.25a2.19 2.19 0 0 0 1.58-1.05 40.46 40.46 0 0 0 5.34-27.54" fill="#ffffff" />
      <path class="cls-2" d="M55.58 67.56a3.27 3.27 0 1 1-3.27-3.26 3.27 3.27 0 0 1 3.27 3.26M45.77 67.56a3.27 3.27 0 1 1-3.27-3.26 3.26 3.26 0 0 1 3.27 3.26" fill="#0098CB" />
      <path class="cls-3" d="M65.78 121a132.57 132.57 0 0 1-16.3-1.25c-7.4-.89-15-1.8-25.35-.79-3.24.31-6.68.82-10.24 1.5a3.49 3.49 0 0 1-4-2.86v-.09a3.66 3.66 0 0 1 2.79-4.25c3.76-.72 7.41-1.25 10.84-1.58 11-1.09 19-.13 26.76.8 8.41 1 16.33 2 27.53.28a3.5 3.5 0 0 1 3.91 3.06 3.63 3.63 0 0 1-2.96 4.18 86.88 86.88 0 0 1-13 1M30.33 31.6a3.09 3.09 0 0 1-2.19-.88 3 3 0 0 1-.06-4.21l.06-.06 3.64-3.57-3.64-3.55a3 3 0 0 1-.06-4.22l.06-.06a3.14 3.14 0 0 1 4.37 0l5.81 5.7a3 3 0 0 1 .07 4.25l-.07.06-5.81 5.7a3.12 3.12 0 0 1-2.18.89M8.65 13.08a2.21 2.21 0 0 1-1.58-.67L2.84 8.14a2.27 2.27 0 0 1 0-3.2L7.07.66a2.23 2.23 0 0 1 3.15 0 2.28 2.28 0 0 1 0 3.21L7.6 6.54l2.64 2.67a2.27 2.27 0 0 1 0 3.2 2.24 2.24 0 0 1-1.58.66M14.27 22.88A2.28 2.28 0 0 1 12.66 19l7.41-7.41a2.29 2.29 0 0 1 3.24 3.23l-7.42 7.42a2.28 2.28 0 0 1-1.62.66" fill="#0098CB"/>
    </g>
  </g>
</svg>