<svg xmlns="http://www.w3.org/2000/svg" width="360" height="124" viewBox="0 0 360 124">
  <g fill="#FFF" fill-rule="evenodd">
    <path fill-rule="nonzero" d="M13.816,32.128 C13.816,30.848 13.176,30.208 11.896,30.208 L2.936,30.208 C1.72,30.208 1.016,29.504 1.016,28.288 L1.016,21.12 C1.016,19.84 1.72,19.2 2.936,19.2 L35.704,19.2 C36.984,19.2 37.624,19.84 37.624,21.12 L37.624,28.288 C37.624,29.504 36.984,30.208 35.704,30.208 L26.744,30.208 C25.528,30.208 24.824,30.848 24.824,32.128 L24.824,62.08 C24.824,63.296 24.184,64 22.904,64 L15.736,64 C14.52,64 13.816,63.296 13.816,62.08 L13.816,32.128 Z M43,19.2 C41.784,19.2 41.08,19.84 41.08,21.12 L41.0827804,49.9988431 C41.1466048,54.4934848 42.43104,65.152 57.144,65.152 C72.312,65.152 73.208,53.824 73.208,49.6 L73.208,21.12 C73.208,19.84 72.568,19.2 71.288,19.2 L64.12,19.2 C62.904,19.2 62.2,19.84 62.2,21.12 L62.1985336,46.7379312 C62.1708879,51.3507861 61.7077818,54.144 57.144,54.144 C52.4941091,54.144 52.1010962,51.2443874 52.088342,46.4748893 L52.088,21.12 C52.088,19.84 51.448,19.2 50.168,19.2 L43,19.2 Z M78.5867804,33.2011569 L78.5867804,49.9988431 C78.6506048,54.4934848 79.93504,65.152 94.648,65.152 C109.816,65.152 110.712,53.824 110.712,49.6 L110.712,40.96 C110.712,39.68 110.072,39.04 108.792,39.04 L95.992,39.04 C94.776,39.04 94.072,39.68 94.072,40.96 L94.072,46.08 C94.072,47.296 94.776,48 95.992,48 L99.704,48 L99.7000182,48.5409381 C99.6523787,51.4730651 99.1107692,54.144 94.648,54.144 C89.9981091,54.144 89.6050962,51.2443874 89.592342,46.4748893 L89.5934664,36.4620688 C89.6211121,31.8492139 90.0842182,29.056 94.648,29.056 C98.296,29.056 99.384,30.848 99.64,33.92 C99.768,35.264 100.472,35.84 101.752,35.584 L108.984,33.984 C110.136,33.728 110.712,33.024 110.648,31.872 L110.62515,31.5517282 C110.22872,26.5120408 107.805053,18.048 94.648,18.048 C79.93504,18.048 78.6506048,28.7065152 78.5867804,33.2011569 L78.5867804,33.2011569 Z M118.264,19.2 C116.984,19.264 116.344,19.904 116.344,21.184 L116.344,62.08 C116.344,63.296 117.048,64 118.264,64 L134.072,64 C146.104,64 149.624,60.16 149.624,52.224 C149.624,48.256 147.704,45.056 145.08,43.84 C147.704,40.96 148.344,36.736 148.344,34.56 C148.344,24.064 143.736,19.2 131.704,19.2 L118.264,19.2 Z M129.272,38.912 C128.056,38.912 127.352,38.272 127.352,36.992 L127.352,32.128 C127.352,30.848 128.056,30.208 129.272,30.208 L132.728,30.208 C135.8,30.208 137.336,30.592 137.336,34.56 C137.336,38.528 135.8,38.912 132.728,38.912 L129.272,38.912 Z M129.208,54.912 C127.992,54.912 127.288,54.272 127.288,52.992 L127.288,50.048 C127.288,48.768 127.992,48.128 129.208,48.128 L133.368,48.128 C136.44,48.128 137.848,48.576 137.848,51.584 C137.848,54.5148718 136.389759,54.8938225 133.473278,54.9113289 L129.208,54.912 Z M185.336,49.6 L185.336,33.6 L185.33322,33.2011569 C185.269395,28.7065152 183.98496,18.048 169.272,18.048 C154.104,18.048 153.208,29.376 153.208,33.6 L153.21078,49.9988431 C153.274605,54.4934848 154.55904,65.152 169.272,65.152 C184.44,65.152 185.336,53.824 185.336,49.6 Z M174.328,36.992 L174.328,46.208 L174.321347,47.2523154 C174.258097,51.5576172 173.663564,54.144 169.272,54.144 C164.622109,54.144 164.229096,51.2443874 164.216342,46.4748893 L164.217466,36.4620688 C164.245112,31.8492139 164.708218,29.056 169.272,29.056 C174.008,29.056 174.328,32.064 174.328,36.992 Z M222.136,61.824 C222.136,63.232 221.496,64 220.216,64 L213.048,64 C211.832,64 211.128,63.36 211.128,62.08 L211.128,56.512 C211.128,55.232 210.488,54.592 209.208,54.592 L203.704,54.592 C202.488,54.592 201.784,55.232 201.784,56.512 L201.784,62.08 C201.784,63.36 201.144,64 199.864,64 L192.696,64 C191.48,64 190.776,63.232 190.776,61.824 L190.777631,34.2036183 C190.832448,26.2843904 192.344,18.048 206.456,18.048 C220.856,18.048 222.136,26.624 222.136,34.688 L222.136,61.824 Z M211.128,41.6 L211.128,34.688 L211.125186,34.2960151 C211.081905,31.4853384 210.496348,30.08 206.456,30.08 C202.323826,30.08 201.805263,31.5499433 201.784669,34.4898299 L201.784,41.664 C201.784,42.88 202.488,43.584 203.704,43.584 L209.208,43.584 C210.488,43.52 211.128,42.88 211.128,41.6 Z M237.176,32.128 C237.176,30.848 236.536,30.208 235.256,30.208 L226.296,30.208 C225.08,30.208 224.376,29.504 224.376,28.288 L224.376,21.12 C224.376,19.84 225.08,19.2 226.296,19.2 L259.064,19.2 C260.344,19.2 260.984,19.84 260.984,21.12 L260.984,28.288 C260.984,29.504 260.344,30.208 259.064,30.208 L250.104,30.208 C248.888,30.208 248.184,30.848 248.184,32.128 L248.184,62.08 C248.184,63.296 247.544,64 246.264,64 L239.096,64 C237.88,64 237.176,63.296 237.176,62.08 L237.176,32.128 Z" transform="translate(99 58)"/>
    <path d="M84.4908585,80.2783977 C84.1965732,78.3492957 82.4561514,77.0016933 80.5157076,77.2047566 L32.5081157,82.2282676 L32.2805044,82.251343 L35.7498524,60.8027742 L62.3688793,60.8027742 L60.3364713,73.374243 L67.4430019,72.6312157 L69.8271728,57.8952758 C69.9904092,56.8938042 69.7053203,55.8715647 69.0500757,55.0985394 C68.394831,54.325514 67.4361046,53.8801591 66.4244988,53.8801591 L36.8695161,53.8801591 L38.812259,41.8578844 L39.8997353,41.8578844 C41.2240192,41.8578844 42.2954017,40.7825715 42.2954017,39.455737 C42.2954017,38.1265949 41.2240192,37.0512821 39.8997353,37.0512821 L25.2153576,37.0512821 C23.8933728,37.0512821 22.8219903,38.1265949 22.8219903,39.455737 C22.8219903,40.7825715 23.8933728,41.8578844 25.2153576,41.8578844 L25.7303569,41.8578844 L18.9617946,83.7143223 L3.24052099,85.4380534 C1.3782467,85.6434243 -0.0448987092,87.274854 0.00108337203,89.1601128 C0.0309717248,90.3069593 0.476997913,100.614733 7.05703374,109.194161 C7.48236799,109.74797 8.13761265,110.064103 8.81814745,110.064103 C8.96758921,110.064103 9.11933008,110.04795 9.26877184,110.020259 C27.8271398,106.173593 38.7363886,107.419664 49.284678,108.621891 C57.8741308,109.602595 65.987669,110.52561 77.5682562,108.87572 C78.2235009,108.781111 78.8074733,108.39806 79.1523389,107.82579 C82.6331825,102.09848 86.3853203,92.6698786 84.4908585,80.2783977"/>
    <path d="M55.5769231 67.5630564C55.5769231 69.3687179 54.1127762 70.8333333 52.3076923 70.8333333 50.5026084 70.8333333 49.0384615 69.3687179 49.0384615 67.5630564 49.0384615 65.7573949 50.5026084 64.2948718 52.3076923 64.2948718 54.1127762 64.2948718 55.5769231 65.7573949 55.5769231 67.5630564M45.7692308 67.5630564C45.7692308 69.3687179 44.3050839 70.8333333 42.5 70.8333333 40.6949161 70.8333333 39.2307692 69.3687179 39.2307692 67.5630564 39.2307692 65.7573949 40.6949161 64.2948718 42.5 64.2948718 44.3050839 64.2948718 45.7692308 65.7573949 45.7692308 67.5630564M65.7780616 120.961538C59.9174439 120.961538 54.7885379 120.344811 49.4818975 119.706144 42.0793765 118.816399 34.4437234 117.902277 24.1305136 118.913905 20.8920549 119.230801 17.448163 119.735396 13.8888592 120.413065 12.0145695 120.783589 10.2049104 119.457503 9.86329114 117.465936 9.52398008 115.481682 10.7727371 113.577871 12.6539515 113.219535 16.4117639 112.500426 20.0564725 111.969016 23.4911315 111.635057 34.517587 110.550299 42.5133253 111.510736 50.2482327 112.439484 58.6571457 113.448675 66.5836368 114.404237 77.780902 112.719815 79.6551917 112.439484 81.4279189 113.824074 81.6956745 115.82783 81.9657385 117.82671 80.6477342 119.676892 78.7549786 119.962098 73.9238354 120.686083 69.6882177 120.961538 65.7780616 120.961538M30.3296609 31.6025641C29.5400227 31.6025641 28.7503845 31.3070893 28.1469594 30.7161398 26.9424665 29.536549 26.9424665 27.6251966 28.1469594 26.4456059L31.7840095 22.8837497 28.1469594 19.324202C26.9424665 18.1423029 26.9424665 16.2309504 28.1469594 15.0513597 29.3514523 13.871769 31.3055123 13.871769 32.5100052 15.0513597L38.3273995 20.7484828C39.5318925 21.9280735 39.5318925 23.8417344 38.3273995 25.0190167L32.5100052 30.7161398C31.9089373 31.3070893 31.1192991 31.6025641 30.3296609 31.6025641M8.65456318 13.0769231C8.08093845 13.0769231 7.50731372 12.8544456 7.06906442 12.4118082L2.83800837 8.14070472C2.41582057 7.71660708 2.17948718 7.13723873 2.17948718 6.53701312 2.17948718 5.9367875 2.41582057 5.35973663 2.83571388 4.93563899L7.06676992.662218027C7.94326851-.220739342 9.36356336-.220739342 10.240062.662218027 11.1165605 1.54749287 11.1165605 2.98200891 10.240062 3.86728375L7.59679917 6.53701312 10.240062 9.20905996C11.1165605 10.0920173 11.1165605 11.5288508 10.240062 12.4118082 9.80181265 12.8544456 9.22818792 13.0769231 8.65456318 13.0769231M14.2712863 22.8846154C13.6871158 22.8846154 13.1029452 22.6626089 12.6566389 22.2162591 11.7640263 21.3235596 11.7640263 19.8770123 12.6566389 18.9843127L20.0732681 11.5669606C20.9658807 10.674261 22.4122869 10.674261 23.3048995 11.5669606 24.1975121 12.4596602 24.1975121 13.9062074 23.3048995 14.798907L15.8859337 22.2162591C15.4396274 22.6626089 14.8554568 22.8846154 14.2712863 22.8846154"/>
  </g>
</svg>
