<svg id="Layer_1" data-name="Layer 1" xmlns="http://www.w3.org/2000/svg" viewBox="76.43 76.43 254.78 254.78"><defs><style>.cls-1{fill:#8eb3c1;}.cls-2{fill:#d4e5eb;}.cls-3{fill:#31758e;}
@media(prefers-color-scheme:dark){.cls-1{fill:#31758e;}.cls-2{fill:#7abfd7;}.cls-3{fill:#fff;}}</style></defs><rect class="cls-1" x="131.82" y="157.28" width="144" height="144" rx="4.5" transform="translate(221.82 -76.97) rotate(45)"/><rect class="cls-2" x="131.82" y="106.37" width="144" height="144" rx="4.5" transform="translate(185.82 -91.88) rotate(45)"/><path class="cls-3" d="M277,105.18l-70,70a4.52,4.52,0,0,1-6.37,0l-19.09-19.1a4.51,4.51,0,0,0-6.36,0l-19.1,19.1a4.51,4.51,0,0,0,0,6.36l22.28,22.27,22.27,22.28a4.5,4.5,0,0,0,6.37,0l95.45-95.46a4.5,4.5,0,0,0,0-6.37l-19.09-19.09A4.51,4.51,0,0,0,277,105.18Z"/></svg>